<svg xmlns="http://www.w3.org/2000/svg" width="26.1" height="26" viewBox="0 0 26.1 26">
  <path id="repeat_ico" d="M1.1,15.6A1.11,1.11,0,0,1,0,14.5v-3A8.493,8.493,0,0,1,8.5,3H20.8V.3c.1-.2.2-.3.4-.3.1,0,.1,0,.2.1l4.5,3.8a.3.3,0,0,1,0,.4L21.4,8c-.1.1-.1.1-.2.1a.265.265,0,0,1-.3-.3V5.1H8.5a6.445,6.445,0,0,0-6.4,6.4v3A1.1,1.1,0,0,1,1.1,15.6ZM4.8,26c-.1,0-.1,0-.2-.1L.1,22.1a.349.349,0,0,1-.1-.2c0-.1,0-.2.1-.2L4.6,18A.3.3,0,0,1,5,18c.1.1.1.1.1.2v2.7H17.5a6.445,6.445,0,0,0,6.4-6.4v-3a1.1,1.1,0,0,1,2.2,0h0v3A8.493,8.493,0,0,1,17.6,23H5.1v2.7A.319.319,0,0,1,4.8,26Z" fill="#00c9b7" fill-rule="evenodd"/>
</svg>
