<svg xmlns="http://www.w3.org/2000/svg" width="26.013" height="26" viewBox="0 0 26.013 26">
  <path id="shuffle_ico" d="M21.2,26a.265.265,0,0,1-.3-.3V23h-.4a9.969,9.969,0,0,1-9-6.9L9.6,10.4A8.008,8.008,0,0,0,2.1,5.1h-1A1.028,1.028,0,0,1,0,4.1.972.972,0,0,1,1,3H2.1a10.093,10.093,0,0,1,9.5,6.9l1.9,5.7a7.984,7.984,0,0,0,7,5.4H21V18.3a.265.265,0,0,1,.3-.3h0c.1,0,.2,0,.2.1l4.2,3.5.2.2c.1,0,.1.1.1.2s0,.2-.1.2l-4.5,3.7A.349.349,0,0,1,21.2,26Zm0-17.9a.265.265,0,0,1-.3-.3V5.1h-.5a7.659,7.659,0,0,0-4.7,2,.908.908,0,0,1-.7.3h0a.909.909,0,0,1-.8-.4,1.093,1.093,0,0,1,.1-1.5h0A10.068,10.068,0,0,1,20.5,3h.4V.3a.319.319,0,0,1,.3-.3.367.367,0,0,1,.3.1L26,3.9a.6.6,0,0,1-.1.4L21.4,8c0,.1-.1.1-.2.1ZM1.1,23a1.1,1.1,0,0,1,0-2.2h1A7.881,7.881,0,0,0,7,19.1h.1a1.1,1.1,0,0,1,1.4,1.7h0A10.264,10.264,0,0,1,2.2,23Z" transform="translate(0.013)" fill="#00c9b7" fill-rule="evenodd"/>
</svg>
