<svg xmlns="http://www.w3.org/2000/svg" width="551" height="63" viewBox="0 0 551 63"><g transform="translate(-637 -275)"><path d="M3,0H3A3,3,0,0,1,6,3V63a0,0,0,0,1,0,0H0a0,0,0,0,1,0,0V3A3,3,0,0,1,3,0Z" transform="translate(637 275)" fill="#755dd5"/><path d="M3,0H3A3,3,0,0,1,6,3V63a0,0,0,0,1,0,0H0a0,0,0,0,1,0,0V3A3,3,0,0,1,3,0Z" transform="translate(777 275)" fill="#755dd5"/><path d="M3,0H3A3,3,0,0,1,6,3V26a0,0,0,0,1,0,0H0a0,0,0,0,1,0,0V3A3,3,0,0,1,3,0Z" transform="translate(687 312)" fill="#755dd5"/><path d="M3,0H3A3,3,0,0,1,6,3V26a0,0,0,0,1,0,0H0a0,0,0,0,1,0,0V3A3,3,0,0,1,3,0Z" transform="translate(842 312)" fill="#755dd5"/><path d="M3,0H3A3,3,0,0,1,6,3V26a0,0,0,0,1,0,0H0a0,0,0,0,1,0,0V3A3,3,0,0,1,3,0Z" transform="translate(827 312)" fill="#755dd5"/><path d="M3,0H3A3,3,0,0,1,6,3V26a0,0,0,0,1,0,0H0a0,0,0,0,1,0,0V3A3,3,0,0,1,3,0Z" transform="translate(717 312)" fill="#755dd5"/><path d="M3,0H3A3,3,0,0,1,6,3V26a0,0,0,0,1,0,0H0a0,0,0,0,1,0,0V3A3,3,0,0,1,3,0Z" transform="translate(872 312)" fill="#755dd5"/><path d="M3,0H3A3,3,0,0,1,6,3V26a0,0,0,0,1,0,0H0a0,0,0,0,1,0,0V3A3,3,0,0,1,3,0Z" transform="translate(757 312)" fill="#755dd5"/><path d="M3,0H3A3,3,0,0,1,6,3V26a0,0,0,0,1,0,0H0a0,0,0,0,1,0,0V3A3,3,0,0,1,3,0Z" transform="translate(742 312)" fill="#755dd5"/><path d="M3,0H3A3,3,0,0,1,6,3V26a0,0,0,0,1,0,0H0a0,0,0,0,1,0,0V3A3,3,0,0,1,3,0Z" transform="translate(897 312)" fill="#755dd5"/><path d="M3,0H3A3,3,0,0,1,6,3V57a0,0,0,0,1,0,0H0a0,0,0,0,1,0,0V3A3,3,0,0,1,3,0Z" transform="translate(642 281)" fill="#755dd5"/><path d="M3,0H3A3,3,0,0,1,6,3V57a0,0,0,0,1,0,0H0a0,0,0,0,1,0,0V3A3,3,0,0,1,3,0Z" transform="translate(782 281)" fill="#755dd5"/><path d="M3,0H3A3,3,0,0,1,6,3V35a0,0,0,0,1,0,0H0a0,0,0,0,1,0,0V3A3,3,0,0,1,3,0Z" transform="translate(692 303)" fill="#755dd5"/><path d="M3,0H3A3,3,0,0,1,6,3V35a0,0,0,0,1,0,0H0a0,0,0,0,1,0,0V3A3,3,0,0,1,3,0Z" transform="translate(847 303)" fill="#755dd5"/><path d="M3,0H3A3,3,0,0,1,6,3V35a0,0,0,0,1,0,0H0a0,0,0,0,1,0,0V3A3,3,0,0,1,3,0Z" transform="translate(832 303)" fill="#755dd5"/><path d="M3,0H3A3,3,0,0,1,6,3V35a0,0,0,0,1,0,0H0a0,0,0,0,1,0,0V3A3,3,0,0,1,3,0Z" transform="translate(722 303)" fill="#755dd5"/><path d="M3,0H3A3,3,0,0,1,6,3V35a0,0,0,0,1,0,0H0a0,0,0,0,1,0,0V3A3,3,0,0,1,3,0Z" transform="translate(877 303)" fill="#755dd5"/><path d="M3,0H3A3,3,0,0,1,6,3V35a0,0,0,0,1,0,0H0a0,0,0,0,1,0,0V3A3,3,0,0,1,3,0Z" transform="translate(752 303)" fill="#755dd5"/><path d="M3,0H3A3,3,0,0,1,6,3V35a0,0,0,0,1,0,0H0a0,0,0,0,1,0,0V3A3,3,0,0,1,3,0Z" transform="translate(907 303)" fill="#755dd5"/><path d="M3,0H3A3,3,0,0,1,6,3V35a0,0,0,0,1,0,0H0a0,0,0,0,1,0,0V3A3,3,0,0,1,3,0Z" transform="translate(737 303)" fill="#755dd5"/><path d="M3,0H3A3,3,0,0,1,6,3V35a0,0,0,0,1,0,0H0a0,0,0,0,1,0,0V3A3,3,0,0,1,3,0Z" transform="translate(892 303)" fill="#755dd5"/><path d="M3,0H3A3,3,0,0,1,6,3V30a0,0,0,0,1,0,0H0a0,0,0,0,1,0,0V3A3,3,0,0,1,3,0Z" transform="translate(647 308)" fill="#755dd5"/><path d="M3,0H3A3,3,0,0,1,6,3V30a0,0,0,0,1,0,0H0a0,0,0,0,1,0,0V3A3,3,0,0,1,3,0Z" transform="translate(787 308)" fill="#755dd5"/><path d="M3,0H3A3,3,0,0,1,6,3V29a0,0,0,0,1,0,0H0a0,0,0,0,1,0,0V3A3,3,0,0,1,3,0Z" transform="translate(697 309)" fill="#755dd5"/><path d="M3,0H3A3,3,0,0,1,6,3V29a0,0,0,0,1,0,0H0a0,0,0,0,1,0,0V3A3,3,0,0,1,3,0Z" transform="translate(852 309)" fill="#755dd5"/><path d="M3,0H3A3,3,0,0,1,6,3V29a0,0,0,0,1,0,0H0a0,0,0,0,1,0,0V3A3,3,0,0,1,3,0Z" transform="translate(837 309)" fill="#755dd5"/><path d="M3,0H3A3,3,0,0,1,6,3V29a0,0,0,0,1,0,0H0a0,0,0,0,1,0,0V3A3,3,0,0,1,3,0Z" transform="translate(727 309)" fill="#755dd5"/><path d="M3,0H3A3,3,0,0,1,6,3V29a0,0,0,0,1,0,0H0a0,0,0,0,1,0,0V3A3,3,0,0,1,3,0Z" transform="translate(882 309)" fill="#755dd5"/><path d="M3,0H3A3,3,0,0,1,6,3V29a0,0,0,0,1,0,0H0a0,0,0,0,1,0,0V3A3,3,0,0,1,3,0Z" transform="translate(747 309)" fill="#755dd5"/><path d="M3,0H3A3,3,0,0,1,6,3V29a0,0,0,0,1,0,0H0a0,0,0,0,1,0,0V3A3,3,0,0,1,3,0Z" transform="translate(902 309)" fill="#755dd5"/><path d="M3,0H3A3,3,0,0,1,6,3V29a0,0,0,0,1,0,0H0a0,0,0,0,1,0,0V3A3,3,0,0,1,3,0Z" transform="translate(732 309)" fill="#755dd5"/><path d="M3,0H3A3,3,0,0,1,6,3V29a0,0,0,0,1,0,0H0a0,0,0,0,1,0,0V3A3,3,0,0,1,3,0Z" transform="translate(887 309)" fill="#755dd5"/><path d="M3,0H3A3,3,0,0,1,6,3V42a0,0,0,0,1,0,0H0a0,0,0,0,1,0,0V3A3,3,0,0,1,3,0Z" transform="translate(652 296)" fill="#755dd5"/><path d="M3,0H3A3,3,0,0,1,6,3V42a0,0,0,0,1,0,0H0a0,0,0,0,1,0,0V3A3,3,0,0,1,3,0Z" transform="translate(792 296)" fill="#755dd5"/><path d="M3,0H3A3,3,0,0,1,6,3V53a0,0,0,0,1,0,0H0a0,0,0,0,1,0,0V3A3,3,0,0,1,3,0Z" transform="translate(682 285)" fill="#755dd5"/><path d="M3,0H3A3,3,0,0,1,6,3V53a0,0,0,0,1,0,0H0a0,0,0,0,1,0,0V3A3,3,0,0,1,3,0Z" transform="translate(822 285)" fill="#755dd5"/><path d="M3,0H3A3,3,0,0,1,6,3V53a0,0,0,0,1,0,0H0a0,0,0,0,1,0,0V3A3,3,0,0,1,3,0Z" transform="translate(712 285)" fill="#755dd5"/><path d="M3,0H3A3,3,0,0,1,6,3V53a0,0,0,0,1,0,0H0a0,0,0,0,1,0,0V3A3,3,0,0,1,3,0Z" transform="translate(867 285)" fill="#755dd5"/><path d="M3,0H3A3,3,0,0,1,6,3V53a0,0,0,0,1,0,0H0a0,0,0,0,1,0,0V3A3,3,0,0,1,3,0Z" transform="translate(762 285)" fill="#755dd5"/><path d="M3,0H3A3,3,0,0,1,6,3V34a0,0,0,0,1,0,0H0a0,0,0,0,1,0,0V3A3,3,0,0,1,3,0Z" transform="translate(657 304)" fill="#755dd5"/><path d="M3,0H3A3,3,0,0,1,6,3V34a0,0,0,0,1,0,0H0a0,0,0,0,1,0,0V3A3,3,0,0,1,3,0Z" transform="translate(797 304)" fill="#755dd5"/><path d="M3,0H3A3,3,0,0,1,6,3V44a0,0,0,0,1,0,0H0a0,0,0,0,1,0,0V3A3,3,0,0,1,3,0Z" transform="translate(667 294)" fill="#755dd5"/><path d="M3,0H3A3,3,0,0,1,6,3V44a0,0,0,0,1,0,0H0a0,0,0,0,1,0,0V3A3,3,0,0,1,3,0Z" transform="translate(807 294)" fill="#755dd5"/><path d="M3,0H3A3,3,0,0,1,6,3V42a0,0,0,0,1,0,0H0a0,0,0,0,1,0,0V3A3,3,0,0,1,3,0Z" transform="translate(672 296)" fill="#755dd5"/><path d="M3,0H3A3,3,0,0,1,6,3V42a0,0,0,0,1,0,0H0a0,0,0,0,1,0,0V3A3,3,0,0,1,3,0Z" transform="translate(812 296)" fill="#755dd5"/><path d="M3,0H3A3,3,0,0,1,6,3V42a0,0,0,0,1,0,0H0a0,0,0,0,1,0,0V3A3,3,0,0,1,3,0Z" transform="translate(702 296)" fill="#755dd5"/><path d="M3,0H3A3,3,0,0,1,6,3V42a0,0,0,0,1,0,0H0a0,0,0,0,1,0,0V3A3,3,0,0,1,3,0Z" transform="translate(857 296)" fill="#755dd5"/><path d="M3,0H3A3,3,0,0,1,6,3V42a0,0,0,0,1,0,0H0a0,0,0,0,1,0,0V3A3,3,0,0,1,3,0Z" transform="translate(772 296)" fill="#755dd5"/><path d="M3,0H3A3,3,0,0,1,6,3V43a0,0,0,0,1,0,0H0a0,0,0,0,1,0,0V3A3,3,0,0,1,3,0Z" transform="translate(677 295)" fill="#755dd5"/><path d="M3,0H3A3,3,0,0,1,6,3V43a0,0,0,0,1,0,0H0a0,0,0,0,1,0,0V3A3,3,0,0,1,3,0Z" transform="translate(817 295)" fill="#755dd5"/><path d="M3,0H3A3,3,0,0,1,6,3V43a0,0,0,0,1,0,0H0a0,0,0,0,1,0,0V3A3,3,0,0,1,3,0Z" transform="translate(707 295)" fill="#755dd5"/><path d="M3,0H3A3,3,0,0,1,6,3V43a0,0,0,0,1,0,0H0a0,0,0,0,1,0,0V3A3,3,0,0,1,3,0Z" transform="translate(862 295)" fill="#755dd5"/><path d="M3,0H3A3,3,0,0,1,6,3V43a0,0,0,0,1,0,0H0a0,0,0,0,1,0,0V3A3,3,0,0,1,3,0Z" transform="translate(767 295)" fill="#755dd5"/><path d="M3,0H3A3,3,0,0,1,6,3V60a0,0,0,0,1,0,0H0a0,0,0,0,1,0,0V3A3,3,0,0,1,3,0Z" transform="translate(662 278)" fill="#755dd5"/><path d="M3,0H3A3,3,0,0,1,6,3V60a0,0,0,0,1,0,0H0a0,0,0,0,1,0,0V3A3,3,0,0,1,3,0Z" transform="translate(802 278)" fill="#755dd5"/><g transform="translate(275)"><path d="M3,0H3A3,3,0,0,1,6,3V63a0,0,0,0,1,0,0H0a0,0,0,0,1,0,0V3A3,3,0,0,1,3,0Z" transform="translate(637 275)" fill="#755dd5"/><path d="M3,0H3A3,3,0,0,1,6,3V63a0,0,0,0,1,0,0H0a0,0,0,0,1,0,0V3A3,3,0,0,1,3,0Z" transform="translate(777 275)" fill="#755dd5"/><path d="M3,0H3A3,3,0,0,1,6,3V26a0,0,0,0,1,0,0H0a0,0,0,0,1,0,0V3A3,3,0,0,1,3,0Z" transform="translate(687 312)" fill="#755dd5"/><path d="M3,0H3A3,3,0,0,1,6,3V26a0,0,0,0,1,0,0H0a0,0,0,0,1,0,0V3A3,3,0,0,1,3,0Z" transform="translate(842 312)" fill="#755dd5"/><path d="M3,0H3A3,3,0,0,1,6,3V26a0,0,0,0,1,0,0H0a0,0,0,0,1,0,0V3A3,3,0,0,1,3,0Z" transform="translate(827 312)" fill="#755dd5"/><path d="M3,0H3A3,3,0,0,1,6,3V26a0,0,0,0,1,0,0H0a0,0,0,0,1,0,0V3A3,3,0,0,1,3,0Z" transform="translate(717 312)" fill="#755dd5"/><path d="M3,0H3A3,3,0,0,1,6,3V26a0,0,0,0,1,0,0H0a0,0,0,0,1,0,0V3A3,3,0,0,1,3,0Z" transform="translate(872 312)" fill="#755dd5"/><path d="M3,0H3A3,3,0,0,1,6,3V26a0,0,0,0,1,0,0H0a0,0,0,0,1,0,0V3A3,3,0,0,1,3,0Z" transform="translate(757 312)" fill="#755dd5"/><path d="M3,0H3A3,3,0,0,1,6,3V26a0,0,0,0,1,0,0H0a0,0,0,0,1,0,0V3A3,3,0,0,1,3,0Z" transform="translate(742 312)" fill="#755dd5"/><path d="M3,0H3A3,3,0,0,1,6,3V26a0,0,0,0,1,0,0H0a0,0,0,0,1,0,0V3A3,3,0,0,1,3,0Z" transform="translate(897 312)" fill="#755dd5"/><path d="M3,0H3A3,3,0,0,1,6,3V57a0,0,0,0,1,0,0H0a0,0,0,0,1,0,0V3A3,3,0,0,1,3,0Z" transform="translate(642 281)" fill="#755dd5"/><path d="M3,0H3A3,3,0,0,1,6,3V57a0,0,0,0,1,0,0H0a0,0,0,0,1,0,0V3A3,3,0,0,1,3,0Z" transform="translate(782 281)" fill="#755dd5"/><path d="M3,0H3A3,3,0,0,1,6,3V35a0,0,0,0,1,0,0H0a0,0,0,0,1,0,0V3A3,3,0,0,1,3,0Z" transform="translate(692 303)" fill="#755dd5"/><path d="M3,0H3A3,3,0,0,1,6,3V35a0,0,0,0,1,0,0H0a0,0,0,0,1,0,0V3A3,3,0,0,1,3,0Z" transform="translate(847 303)" fill="#755dd5"/><path d="M3,0H3A3,3,0,0,1,6,3V35a0,0,0,0,1,0,0H0a0,0,0,0,1,0,0V3A3,3,0,0,1,3,0Z" transform="translate(832 303)" fill="#755dd5"/><path d="M3,0H3A3,3,0,0,1,6,3V35a0,0,0,0,1,0,0H0a0,0,0,0,1,0,0V3A3,3,0,0,1,3,0Z" transform="translate(722 303)" fill="#755dd5"/><path d="M3,0H3A3,3,0,0,1,6,3V35a0,0,0,0,1,0,0H0a0,0,0,0,1,0,0V3A3,3,0,0,1,3,0Z" transform="translate(877 303)" fill="#755dd5"/><path d="M3,0H3A3,3,0,0,1,6,3V35a0,0,0,0,1,0,0H0a0,0,0,0,1,0,0V3A3,3,0,0,1,3,0Z" transform="translate(752 303)" fill="#755dd5"/><path d="M3,0H3A3,3,0,0,1,6,3V35a0,0,0,0,1,0,0H0a0,0,0,0,1,0,0V3A3,3,0,0,1,3,0Z" transform="translate(907 303)" fill="#755dd5"/><path d="M3,0H3A3,3,0,0,1,6,3V35a0,0,0,0,1,0,0H0a0,0,0,0,1,0,0V3A3,3,0,0,1,3,0Z" transform="translate(737 303)" fill="#755dd5"/><path d="M3,0H3A3,3,0,0,1,6,3V35a0,0,0,0,1,0,0H0a0,0,0,0,1,0,0V3A3,3,0,0,1,3,0Z" transform="translate(892 303)" fill="#755dd5"/><path d="M3,0H3A3,3,0,0,1,6,3V30a0,0,0,0,1,0,0H0a0,0,0,0,1,0,0V3A3,3,0,0,1,3,0Z" transform="translate(647 308)" fill="#755dd5"/><path d="M3,0H3A3,3,0,0,1,6,3V30a0,0,0,0,1,0,0H0a0,0,0,0,1,0,0V3A3,3,0,0,1,3,0Z" transform="translate(787 308)" fill="#755dd5"/><path d="M3,0H3A3,3,0,0,1,6,3V29a0,0,0,0,1,0,0H0a0,0,0,0,1,0,0V3A3,3,0,0,1,3,0Z" transform="translate(697 309)" fill="#755dd5"/><path d="M3,0H3A3,3,0,0,1,6,3V29a0,0,0,0,1,0,0H0a0,0,0,0,1,0,0V3A3,3,0,0,1,3,0Z" transform="translate(852 309)" fill="#755dd5"/><path d="M3,0H3A3,3,0,0,1,6,3V29a0,0,0,0,1,0,0H0a0,0,0,0,1,0,0V3A3,3,0,0,1,3,0Z" transform="translate(837 309)" fill="#755dd5"/><path d="M3,0H3A3,3,0,0,1,6,3V29a0,0,0,0,1,0,0H0a0,0,0,0,1,0,0V3A3,3,0,0,1,3,0Z" transform="translate(727 309)" fill="#755dd5"/><path d="M3,0H3A3,3,0,0,1,6,3V29a0,0,0,0,1,0,0H0a0,0,0,0,1,0,0V3A3,3,0,0,1,3,0Z" transform="translate(882 309)" fill="#755dd5"/><path d="M3,0H3A3,3,0,0,1,6,3V29a0,0,0,0,1,0,0H0a0,0,0,0,1,0,0V3A3,3,0,0,1,3,0Z" transform="translate(747 309)" fill="#755dd5"/><path d="M3,0H3A3,3,0,0,1,6,3V29a0,0,0,0,1,0,0H0a0,0,0,0,1,0,0V3A3,3,0,0,1,3,0Z" transform="translate(902 309)" fill="#755dd5"/><path d="M3,0H3A3,3,0,0,1,6,3V29a0,0,0,0,1,0,0H0a0,0,0,0,1,0,0V3A3,3,0,0,1,3,0Z" transform="translate(732 309)" fill="#755dd5"/><path d="M3,0H3A3,3,0,0,1,6,3V29a0,0,0,0,1,0,0H0a0,0,0,0,1,0,0V3A3,3,0,0,1,3,0Z" transform="translate(887 309)" fill="#755dd5"/><path d="M3,0H3A3,3,0,0,1,6,3V42a0,0,0,0,1,0,0H0a0,0,0,0,1,0,0V3A3,3,0,0,1,3,0Z" transform="translate(652 296)" fill="#755dd5"/><path d="M3,0H3A3,3,0,0,1,6,3V42a0,0,0,0,1,0,0H0a0,0,0,0,1,0,0V3A3,3,0,0,1,3,0Z" transform="translate(792 296)" fill="#755dd5"/><path d="M3,0H3A3,3,0,0,1,6,3V53a0,0,0,0,1,0,0H0a0,0,0,0,1,0,0V3A3,3,0,0,1,3,0Z" transform="translate(682 285)" fill="#755dd5"/><path d="M3,0H3A3,3,0,0,1,6,3V53a0,0,0,0,1,0,0H0a0,0,0,0,1,0,0V3A3,3,0,0,1,3,0Z" transform="translate(822 285)" fill="#755dd5"/><path d="M3,0H3A3,3,0,0,1,6,3V53a0,0,0,0,1,0,0H0a0,0,0,0,1,0,0V3A3,3,0,0,1,3,0Z" transform="translate(712 285)" fill="#755dd5"/><path d="M3,0H3A3,3,0,0,1,6,3V53a0,0,0,0,1,0,0H0a0,0,0,0,1,0,0V3A3,3,0,0,1,3,0Z" transform="translate(867 285)" fill="#755dd5"/><path d="M3,0H3A3,3,0,0,1,6,3V53a0,0,0,0,1,0,0H0a0,0,0,0,1,0,0V3A3,3,0,0,1,3,0Z" transform="translate(762 285)" fill="#755dd5"/><path d="M3,0H3A3,3,0,0,1,6,3V34a0,0,0,0,1,0,0H0a0,0,0,0,1,0,0V3A3,3,0,0,1,3,0Z" transform="translate(657 304)" fill="#755dd5"/><path d="M3,0H3A3,3,0,0,1,6,3V34a0,0,0,0,1,0,0H0a0,0,0,0,1,0,0V3A3,3,0,0,1,3,0Z" transform="translate(797 304)" fill="#755dd5"/><path d="M3,0H3A3,3,0,0,1,6,3V44a0,0,0,0,1,0,0H0a0,0,0,0,1,0,0V3A3,3,0,0,1,3,0Z" transform="translate(667 294)" fill="#755dd5"/><path d="M3,0H3A3,3,0,0,1,6,3V44a0,0,0,0,1,0,0H0a0,0,0,0,1,0,0V3A3,3,0,0,1,3,0Z" transform="translate(807 294)" fill="#755dd5"/><path d="M3,0H3A3,3,0,0,1,6,3V42a0,0,0,0,1,0,0H0a0,0,0,0,1,0,0V3A3,3,0,0,1,3,0Z" transform="translate(672 296)" fill="#755dd5"/><path d="M3,0H3A3,3,0,0,1,6,3V42a0,0,0,0,1,0,0H0a0,0,0,0,1,0,0V3A3,3,0,0,1,3,0Z" transform="translate(812 296)" fill="#755dd5"/><path d="M3,0H3A3,3,0,0,1,6,3V42a0,0,0,0,1,0,0H0a0,0,0,0,1,0,0V3A3,3,0,0,1,3,0Z" transform="translate(702 296)" fill="#755dd5"/><path d="M3,0H3A3,3,0,0,1,6,3V42a0,0,0,0,1,0,0H0a0,0,0,0,1,0,0V3A3,3,0,0,1,3,0Z" transform="translate(857 296)" fill="#755dd5"/><path d="M3,0H3A3,3,0,0,1,6,3V42a0,0,0,0,1,0,0H0a0,0,0,0,1,0,0V3A3,3,0,0,1,3,0Z" transform="translate(772 296)" fill="#755dd5"/><path d="M3,0H3A3,3,0,0,1,6,3V43a0,0,0,0,1,0,0H0a0,0,0,0,1,0,0V3A3,3,0,0,1,3,0Z" transform="translate(677 295)" fill="#755dd5"/><path d="M3,0H3A3,3,0,0,1,6,3V43a0,0,0,0,1,0,0H0a0,0,0,0,1,0,0V3A3,3,0,0,1,3,0Z" transform="translate(817 295)" fill="#755dd5"/><path d="M3,0H3A3,3,0,0,1,6,3V43a0,0,0,0,1,0,0H0a0,0,0,0,1,0,0V3A3,3,0,0,1,3,0Z" transform="translate(707 295)" fill="#755dd5"/><path d="M3,0H3A3,3,0,0,1,6,3V43a0,0,0,0,1,0,0H0a0,0,0,0,1,0,0V3A3,3,0,0,1,3,0Z" transform="translate(862 295)" fill="#755dd5"/><path d="M3,0H3A3,3,0,0,1,6,3V43a0,0,0,0,1,0,0H0a0,0,0,0,1,0,0V3A3,3,0,0,1,3,0Z" transform="translate(767 295)" fill="#755dd5"/><path d="M3,0H3A3,3,0,0,1,6,3V60a0,0,0,0,1,0,0H0a0,0,0,0,1,0,0V3A3,3,0,0,1,3,0Z" transform="translate(662 278)" fill="#755dd5"/><path d="M3,0H3A3,3,0,0,1,6,3V60a0,0,0,0,1,0,0H0a0,0,0,0,1,0,0V3A3,3,0,0,1,3,0Z" transform="translate(802 278)" fill="#755dd5"/></g></g></svg>